<?xml version="1.0" encoding="utf-8"?>
<!-- Generator: Adobe Illustrator 28.4.1, SVG Export Plug-In . SVG Version: 6.00 Build 0)  -->
<svg version="1.1" id="Layer_1" xmlns="http://www.w3.org/2000/svg" xmlns:xlink="http://www.w3.org/1999/xlink" x="0px" y="0px"
	 width="499.5px" height="133.9px" viewBox="0 0 499.5 133.9" style="enable-background:new 0 0 499.5 133.9;" xml:space="preserve"
	>
<style type="text/css">
	.st0{fill:#003778;}
	.st1{fill:#0094FF;}
	.st2{fill:#FFFFFF;}
</style>
<g>
	<g>
		<g>
			<path class="st2" d="M138.6,42.1c-1.8-0.9-3.1-2.3-4.1-4s-1.5-3.6-1.5-5.9v-9.5c0-2.2,0.5-4.1,1.5-5.8c1-1.7,2.3-3,4.1-3.9
				s3.8-1.4,6.1-1.4s4.4,0.5,6.1,1.4c1.8,0.9,3.1,2.2,4.1,3.9s1.5,3.6,1.5,5.8v9.5c0,2.2-0.5,4.2-1.5,5.9s-2.3,3-4.1,4
				c-1.8,0.9-3.8,1.4-6.1,1.4C142.4,43.5,140.3,43,138.6,42.1z M148.6,36.6c1-1,1.5-2.4,1.5-4.1v-9.7c0-1.7-0.5-3.1-1.5-4.1
				s-2.3-1.6-4-1.6c-1.6,0-2.9,0.5-3.9,1.6c-1,1-1.5,2.4-1.5,4.1v9.7c0,1.7,0.5,3.1,1.5,4.1s2.3,1.5,3.9,1.5
				C146.3,38.2,147.6,37.7,148.6,36.6z"/>
			<path class="st2" d="M179,13.2c1.5,0.8,2.6,1.9,3.4,3.4c0.8,1.5,1.2,3.1,1.2,5s-0.4,3.5-1.3,4.9c-0.8,1.4-2,2.5-3.5,3.3
				s-3.3,1.2-5.2,1.2h-6.3c-0.1,0-0.2,0.1-0.2,0.2v11.3c0,0.1-0.1,0.3-0.2,0.4c-0.1,0.1-0.2,0.2-0.4,0.2h-5.2
				c-0.1,0-0.3-0.1-0.4-0.2c-0.1-0.1-0.2-0.2-0.2-0.4V12.6c0-0.1,0.1-0.3,0.2-0.4c0.1-0.1,0.2-0.2,0.4-0.2h12.5
				C175.8,12,177.6,12.4,179,13.2z M176.2,24.8c0.8-0.8,1.2-1.8,1.2-3.1c0-1.3-0.4-2.3-1.2-3.1c-0.8-0.8-1.9-1.2-3.3-1.2h-5.6
				c-0.1,0-0.2,0.1-0.2,0.2v8.1c0,0.1,0.1,0.2,0.2,0.2h5.6C174.3,26,175.4,25.6,176.2,24.8z"/>
			<path class="st2" d="M208.9,17.3c-0.1,0.1-0.2,0.2-0.4,0.2H194c-0.1,0-0.2,0.1-0.2,0.2v6.9c0,0.1,0.1,0.2,0.2,0.2h9.5
				c0.1,0,0.3,0.1,0.4,0.2c0.1,0.1,0.2,0.2,0.2,0.4v4.3c0,0.1-0.1,0.3-0.2,0.4c-0.1,0.1-0.2,0.2-0.4,0.2H194c-0.1,0-0.2,0.1-0.2,0.2
				v7.2c0,0.1,0.1,0.2,0.2,0.2h14.5c0.1,0,0.3,0.1,0.4,0.2c0.1,0.1,0.2,0.2,0.2,0.4v4.3c0,0.1-0.1,0.3-0.2,0.4
				c-0.1,0.1-0.2,0.2-0.4,0.2H188c-0.1,0-0.3-0.1-0.4-0.2c-0.1-0.1-0.2-0.2-0.2-0.4V12.6c0-0.1,0.1-0.3,0.2-0.4
				c0.1-0.1,0.2-0.2,0.4-0.2h20.4c0.1,0,0.3,0.1,0.4,0.2c0.1,0.1,0.2,0.2,0.2,0.4v4.3C209,17,209,17.2,208.9,17.3z"/>
			<path class="st2" d="M231.3,12.2c0.1-0.1,0.2-0.2,0.4-0.2h5.2c0.1,0,0.3,0.1,0.4,0.2c0.1,0.1,0.2,0.2,0.2,0.4v29.9
				c0,0.1-0.1,0.3-0.2,0.4c-0.1,0.1-0.2,0.2-0.4,0.2h-5c-0.3,0-0.5-0.1-0.6-0.4l-11.5-18.9c-0.1-0.1-0.1-0.1-0.2-0.1
				c-0.1,0-0.1,0.1-0.1,0.2l0.1,18.7c0,0.1-0.1,0.3-0.2,0.4c-0.1,0.1-0.2,0.2-0.4,0.2h-5.2c-0.1,0-0.3-0.1-0.4-0.2
				c-0.1-0.1-0.2-0.2-0.2-0.4v-30c0-0.1,0.1-0.3,0.2-0.4c0.1-0.1,0.2-0.2,0.4-0.2h5c0.3,0,0.5,0.1,0.6,0.4l11.4,18.8
				c0.1,0.1,0.1,0.1,0.2,0.1c0.1,0,0.1-0.1,0.1-0.2V12.5C231.1,12.5,231.2,12.3,231.3,12.2z"/>
			<path class="st2" d="M259.2,42.6l-9.1-29.9v-0.2c0-0.3,0.2-0.4,0.5-0.4h5.6c0.3,0,0.5,0.1,0.6,0.4l5.9,21.6
				c0,0.1,0.1,0.1,0.1,0.1c0.1,0,0.1,0,0.1-0.1l5.8-21.6c0.1-0.3,0.3-0.4,0.6-0.4h5.4c0.2,0,0.3,0.1,0.4,0.2c0.1,0.1,0.1,0.3,0,0.4
				L266,42.6c-0.1,0.3-0.3,0.4-0.6,0.4h-5.6C259.5,43,259.3,42.9,259.2,42.6z"/>
			<path class="st2" d="M282.6,42.1c-1.8-0.9-3.1-2.3-4.1-4s-1.5-3.6-1.5-5.9v-9.5c0-2.2,0.5-4.1,1.5-5.8c1-1.7,2.3-3,4.1-3.9
				c1.8-0.9,3.8-1.4,6.1-1.4c2.3,0,4.4,0.5,6.1,1.4c1.8,0.9,3.1,2.2,4.1,3.9s1.5,3.6,1.5,5.8v9.5c0,2.2-0.5,4.2-1.5,5.9
				s-2.3,3-4.1,4c-1.8,0.9-3.8,1.4-6.1,1.4S284.3,43,282.6,42.1z M292.6,36.6c1-1,1.5-2.4,1.5-4.1v-9.7c0-1.7-0.5-3.1-1.5-4.1
				s-2.3-1.6-4-1.6c-1.6,0-2.9,0.5-3.9,1.6c-1,1-1.5,2.4-1.5,4.1v9.7c0,1.7,0.5,3.1,1.5,4.1s2.3,1.5,3.9,1.5
				C290.3,38.2,291.6,37.7,292.6,36.6z"/>
			<path class="st2" d="M305.3,42.9c-0.1-0.1-0.2-0.2-0.2-0.4V12.6c0-0.1,0.1-0.3,0.2-0.4c0.1-0.1,0.2-0.2,0.4-0.2h5.2
				c0.1,0,0.3,0.1,0.4,0.2c0.1,0.1,0.2,0.2,0.2,0.4v29.9c0,0.1-0.1,0.3-0.2,0.4c-0.1,0.1-0.2,0.2-0.4,0.2h-5.2
				C305.5,43,305.4,43,305.3,42.9z"/>
			<path class="st2" d="M320.4,42c-1.7-0.9-3.1-2.2-4-3.8s-1.4-3.5-1.4-5.6V22.4c0-2.1,0.5-4,1.4-5.6s2.3-2.9,4-3.8
				c1.7-0.9,3.8-1.3,6.1-1.3c2.3,0,4.3,0.4,6,1.3c1.7,0.8,3.1,2,4,3.6c1,1.5,1.4,3.3,1.4,5.4c0,0.3-0.2,0.4-0.5,0.5l-5.2,0.3h-0.1
				c-0.3,0-0.4-0.2-0.4-0.5c0-1.6-0.5-2.8-1.4-3.8c-1-0.9-2.2-1.4-3.8-1.4c-1.6,0-2.9,0.5-3.8,1.4c-1,0.9-1.4,2.2-1.4,3.8V33
				c0,1.5,0.5,2.8,1.4,3.7c1,0.9,2.2,1.4,3.8,1.4c1.6,0,2.8-0.5,3.8-1.4s1.4-2.2,1.4-3.7c0-0.3,0.2-0.5,0.5-0.5l5.2,0.2
				c0.1,0,0.3,0,0.4,0.1s0.2,0.2,0.2,0.3c0,2-0.5,3.8-1.4,5.4c-1,1.6-2.3,2.8-4,3.6c-1.7,0.9-3.7,1.3-6,1.3
				C324.2,43.4,322.2,42.9,320.4,42z"/>
			<path class="st2" d="M363.8,17.3c-0.1,0.1-0.2,0.2-0.4,0.2H349c-0.1,0-0.2,0.1-0.2,0.2v6.9c0,0.1,0.1,0.2,0.2,0.2h9.5
				c0.1,0,0.3,0.1,0.4,0.2s0.2,0.2,0.2,0.4v4.3c0,0.1-0.1,0.3-0.2,0.4s-0.2,0.2-0.4,0.2H349c-0.1,0-0.2,0.1-0.2,0.2v7.2
				c0,0.1,0.1,0.2,0.2,0.2h14.5c0.1,0,0.3,0.1,0.4,0.2c0.1,0.1,0.2,0.2,0.2,0.4v4.3c0,0.1-0.1,0.3-0.2,0.4c-0.1,0.1-0.2,0.2-0.4,0.2
				H343c-0.1,0-0.3-0.1-0.4-0.2c-0.1-0.1-0.2-0.2-0.2-0.4V12.6c0-0.1,0.1-0.3,0.2-0.4c0.1-0.1,0.2-0.2,0.4-0.2h20.4
				c0.1,0,0.3,0.1,0.4,0.2c0.1,0.1,0.2,0.2,0.2,0.4v4.3C364,17,364,17.2,363.8,17.3z"/>
			<path class="st2" d="M168.7,53.8c0.2,0.2,0.3,0.4,0.3,0.7v8.3c0,0.3-0.1,0.5-0.3,0.7s-0.4,0.3-0.7,0.3h-10.7
				c-0.3,0-0.4,0.1-0.4,0.4v48.2c0,0.3-0.1,0.5-0.3,0.7s-0.4,0.3-0.7,0.3h-10c-0.3,0-0.5-0.1-0.7-0.3c-0.2-0.2-0.3-0.4-0.3-0.7V64.3
				c0-0.3-0.1-0.4-0.4-0.4H134c-0.3,0-0.5-0.1-0.7-0.3s-0.3-0.4-0.3-0.7v-8.3c0-0.3,0.1-0.5,0.3-0.7s0.4-0.3,0.7-0.3h34
				C168.3,53.5,168.5,53.6,168.7,53.8z"/>
			<path class="st2" d="M197.3,112.7L190.7,89c-0.1-0.2-0.3-0.3-0.4-0.3h-2.9c-0.3,0-0.4,0.1-0.4,0.4v23.4c0,0.3-0.1,0.5-0.3,0.7
				s-0.4,0.3-0.7,0.3h-10c-0.3,0-0.5-0.1-0.7-0.3c-0.2-0.2-0.3-0.4-0.3-0.7V54.6c0-0.3,0.1-0.5,0.3-0.7s0.4-0.3,0.7-0.3h17.3
				c3.1,0,5.9,0.8,8.4,2.3s4.4,3.6,5.7,6.4c1.3,2.7,2,5.9,2,9.4c0,3.4-0.6,6.3-1.9,8.9c-1.3,2.6-3.1,4.6-5.4,6
				c-0.1,0.1-0.2,0.1-0.3,0.2s-0.1,0.2,0,0.3l7.9,25.3l0.1,0.3c0,0.6-0.3,0.9-0.9,0.9h-10.3C197.8,113.5,197.4,113.2,197.3,112.7z
				 M186.9,64.3V79c0,0.3,0.1,0.4,0.4,0.4h3.9c1.8,0,3.2-0.7,4.3-2.1s1.7-3.3,1.7-5.6c0-2.4-0.6-4.3-1.7-5.7
				c-1.1-1.4-2.6-2.1-4.3-2.1h-3.9C187,63.9,186.9,64,186.9,64.3z"/>
			<path class="st2" d="M219.6,109.4c-3.1-3.2-4.7-7.5-4.7-12.9V54.6c0-0.3,0.1-0.5,0.3-0.7s0.4-0.3,0.7-0.3h10
				c0.3,0,0.5,0.1,0.7,0.3s0.3,0.4,0.3,0.7v43.1c0,1.8,0.5,3.3,1.4,4.5c0.9,1.1,2.1,1.7,3.6,1.7s2.7-0.6,3.6-1.7
				c0.9-1.1,1.3-2.6,1.3-4.5V54.6c0-0.3,0.1-0.5,0.3-0.7s0.4-0.3,0.7-0.3h10c0.3,0,0.5,0.1,0.7,0.3s0.3,0.4,0.3,0.7v41.9
				c0,5.4-1.6,9.7-4.7,12.9c-3.1,3.2-7.2,4.8-12.3,4.8C226.8,114.2,222.7,112.6,219.6,109.4z"/>
			<path class="st2" d="M262.9,112.2c-2.5-1.3-4.5-3.2-5.8-5.5c-1.4-2.4-2.1-5.1-2.1-8.2V96c0-0.3,0.1-0.5,0.3-0.7s0.4-0.3,0.7-0.3
				h9.9c0.3,0,0.5,0.1,0.7,0.3c0.2,0.2,0.3,0.4,0.3,0.7v1.9c0,1.8,0.5,3.2,1.4,4.3c0.9,1.1,2.1,1.6,3.4,1.6s2.5-0.5,3.4-1.5
				s1.4-2.4,1.4-4c0-1.7-0.6-3.2-1.7-4.4c-1.1-1.2-3.4-3-6.7-5.4c-2.9-2.1-5.2-3.9-6.9-5.5c-1.8-1.6-3.3-3.6-4.5-5.9
				c-1.3-2.3-1.9-5.1-1.9-8.1c0-4.9,1.5-8.7,4.5-11.7s7-4.4,12-4.4s9.1,1.5,12.1,4.5c3.1,3,4.6,7,4.6,11.9v2.1
				c0,0.3-0.1,0.5-0.3,0.7c-0.2,0.2-0.4,0.3-0.7,0.3h-9.9c-0.3,0-0.5-0.1-0.7-0.3c-0.2-0.2-0.3-0.4-0.3-0.7V69
				c0-1.8-0.4-3.2-1.3-4.2c-0.9-1.1-2-1.6-3.5-1.6c-1.4,0-2.5,0.5-3.3,1.5c-0.9,1-1.3,2.4-1.3,4.2c0,1.7,0.5,3.2,1.6,4.5
				s3.2,3.1,6.4,5.5c3.5,2.6,6.2,4.8,8,6.4s3.2,3.4,4.2,5.4s1.5,4.3,1.5,7.1c0,5-1.5,9-4.6,12s-7.1,4.5-12.2,4.5
				C268.3,114.2,265.4,113.5,262.9,112.2z"/>
			<path class="st2" d="M327.7,53.8c0.2,0.2,0.3,0.4,0.3,0.7v8.3c0,0.3-0.1,0.5-0.3,0.7c-0.2,0.2-0.4,0.3-0.7,0.3h-10.7
				c-0.3,0-0.4,0.1-0.4,0.4v48.2c0,0.3-0.1,0.5-0.3,0.7c-0.2,0.2-0.4,0.3-0.7,0.3h-10c-0.3,0-0.5-0.1-0.7-0.3
				c-0.2-0.2-0.3-0.4-0.3-0.7V64.3c0-0.3-0.1-0.4-0.4-0.4h-10.3c-0.3,0-0.5-0.1-0.7-0.3s-0.3-0.4-0.3-0.7v-8.3
				c0-0.3,0.1-0.5,0.3-0.7c0.2-0.2,0.4-0.3,0.7-0.3H327C327.3,53.5,327.5,53.6,327.7,53.8z"/>
			<path class="st2" d="M362.5,53.5h9.9c0.3,0,0.5,0.1,0.7,0.3s0.3,0.4,0.3,0.7v57.9c0,0.3-0.1,0.5-0.3,0.7
				c-0.2,0.2-0.4,0.3-0.7,0.3h-10c-0.3,0-0.5-0.1-0.7-0.3c-0.2-0.2-0.3-0.4-0.3-0.7V74c0-0.2-0.1-0.3-0.2-0.3s-0.2,0.1-0.3,0.3
				l-6.7,11.8c-0.3,0.5-0.5,0.7-0.7,0.7s-0.4-0.2-0.7-0.7L346.1,74c-0.1-0.2-0.2-0.3-0.3-0.3c-0.1,0-0.2,0.1-0.2,0.3v38.5
				c0,0.3-0.1,0.5-0.3,0.7c-0.2,0.2-0.4,0.3-0.7,0.3h-10c-0.3,0-0.5-0.1-0.7-0.3c-0.2-0.2-0.3-0.4-0.3-0.7V54.6
				c0-0.3,0.1-0.5,0.3-0.7c0.2-0.2,0.4-0.3,0.7-0.3h9.9c0.6,0,1,0.2,1.3,0.7l7.6,13.6c0.2,0.2,0.3,0.2,0.5,0l7.4-13.6
				C361.5,53.8,361.9,53.5,362.5,53.5z"/>
			<path class="st2" d="M404.9,112.6l-1.4-8.2c0-0.3-0.2-0.4-0.5-0.4h-10.9c-0.3,0-0.5,0.1-0.5,0.4l-1.4,8.2
				c-0.1,0.6-0.4,0.9-1.1,0.9h-10c-0.7,0-1-0.4-0.9-1.1l12.6-57.9c0.1-0.6,0.5-0.9,1.1-0.9h11.6c0.6,0,1,0.3,1.1,0.9l12.5,57.9
				l0.1,0.3c0,0.5-0.3,0.8-0.9,0.8H406C405.3,113.5,404.9,113.2,404.9,112.6z M393.6,94.6h7.7c0.3,0,0.4-0.1,0.3-0.4l-4-23.4
				c-0.1-0.2-0.1-0.3-0.3-0.3c-0.1,0-0.2,0.1-0.3,0.3l-3.9,23.4C393.3,94.4,393.4,94.6,393.6,94.6z"/>
			<path class="st2" d="M444.5,112.7L437.9,89c-0.1-0.2-0.3-0.3-0.4-0.3h-2.9c-0.3,0-0.4,0.1-0.4,0.4v23.4c0,0.3-0.1,0.5-0.3,0.7
				c-0.2,0.2-0.4,0.3-0.7,0.3h-10c-0.3,0-0.5-0.1-0.7-0.3c-0.2-0.2-0.3-0.4-0.3-0.7V54.6c0-0.3,0.1-0.5,0.3-0.7
				c0.2-0.2,0.4-0.3,0.7-0.3h17.3c3.1,0,5.9,0.8,8.4,2.3s4.4,3.6,5.7,6.4c1.3,2.7,2,5.9,2,9.4c0,3.4-0.6,6.3-1.9,8.9s-3.1,4.6-5.4,6
				c-0.1,0.1-0.2,0.1-0.3,0.2c-0.1,0.1-0.1,0.2,0,0.3l7.9,25.3l0.1,0.3c0,0.6-0.3,0.9-0.9,0.9h-10.3
				C445.1,113.5,444.7,113.2,444.5,112.7z M434.2,64.3V79c0,0.3,0.1,0.4,0.4,0.4h3.9c1.8,0,3.2-0.7,4.3-2.1c1.1-1.4,1.7-3.3,1.7-5.6
				c0-2.4-0.6-4.3-1.7-5.7c-1.1-1.4-2.6-2.1-4.3-2.1h-3.9C434.3,63.9,434.2,64,434.2,64.3z"/>
			<path class="st2" d="M462.7,113.2c-0.2-0.2-0.3-0.4-0.3-0.7V54.6c0-0.3,0.1-0.5,0.3-0.7c0.2-0.2,0.4-0.3,0.7-0.3h10
				c0.3,0,0.5,0.1,0.7,0.3s0.3,0.4,0.3,0.7v21.6c0,0.2,0.1,0.4,0.2,0.4s0.2-0.1,0.3-0.3L486,54.4c0.3-0.5,0.7-0.8,1.2-0.8h10.6
				c0.4,0,0.7,0.1,0.8,0.3c0.1,0.2,0.1,0.5,0,0.9L486,79.4c-0.1,0.2-0.1,0.4-0.1,0.5l13.5,32.4c0.1,0.1,0.1,0.3,0.1,0.5
				c0,0.5-0.3,0.7-0.9,0.7h-10.7c-0.6,0-1-0.3-1.2-0.8l-8.9-22.4c-0.1-0.2-0.1-0.2-0.3-0.2c-0.1,0-0.2,0.1-0.3,0.2l-2.5,4.5
				c-0.1,0.2-0.2,0.4-0.2,0.5v17.2c0,0.3-0.1,0.5-0.3,0.7c-0.2,0.2-0.4,0.3-0.7,0.3h-10C463.2,113.5,462.9,113.4,462.7,113.2z"/>
		</g>
	</g>
	<path class="st2" d="M121,92c-2.4-4.2-6-7.8-10.2-10.2c-4.2-2.4-9-3.7-13.9-3.7l0,0c-7.4,0-14.5,2.9-19.7,8.2
		C72,91.5,69,98.6,69,106c0,7.4,2.9,14.5,8.2,19.7c5.2,5.2,12.3,8.2,19.7,8.2c7.4,0,14.5-2.9,19.7-8.2c5.2-5.2,8.2-12.3,8.2-19.7
		C124.7,101,123.4,96.2,121,92z M114.1,97.7L100.2,120c-0.9,1.4-2.4,2.4-4.1,2.6h-0.6c-1.5,0-2.9-0.6-4-1.6l-11.1-11.1
		c-1.4-1.4-2-3.5-1.4-5.4c0.5-1.9,2-3.4,4-4c1.9-0.5,4,0,5.4,1.4l6.2,6.2l10.2-16.3c1.1-1.7,2.9-2.7,4.9-2.6s3.8,1.2,4.7,3
		C115.2,93.8,115.2,95.9,114.1,97.7L114.1,97.7z"/>
	<g>
		<polygon class="st2" points="107.3,24.9 107.3,24.9 107.3,24.9 		"/>
		<polygon class="st2" points="82.4,0 82.4,0 82.4,0 		"/>
		<path class="st2" d="M92.4,21.1h11.1l-21-21v11.1C82.5,16.7,86.9,21.1,92.4,21.1z"/>
		<path class="st2" d="M92.4,28.7c-9.6,0-17.5-7.8-17.5-17.5V0.6L74.2,0H0v133.7h67.7c-7.3-7.1-11.9-17-11.9-27.9
			C55.9,84.4,73.3,67,94.7,67c4.4,0,8.6,0.7,12.6,2.1v-40l-0.5-0.4H92.4z M10.2,25.1c1-1.7,2.8-2.8,4.8-2.8h49.2
			c2,0,3.8,1.1,4.8,2.8c1,1.7,1,3.8,0,5.6c-1,1.7-2.8,2.8-4.8,2.8H15.1c-2,0-3.8-1.1-4.8-2.8C9.2,28.9,9.2,26.8,10.2,25.1z
			 M47.7,114.2c-1,1.7-2.8,2.8-4.8,2.8H15.1c-2,0-3.8-1.1-4.8-2.8s-1-3.8,0-5.6c1-1.7,2.8-2.8,4.8-2.8H43c2,0,3.8,1.1,4.8,2.8
			C48.7,110.4,48.7,112.5,47.7,114.2z M47.7,86.4c-1,1.7-2.8,2.8-4.8,2.8H15.1c-2,0-3.8-1.1-4.8-2.8c-1-1.7-1-3.8,0-5.6
			c1-1.7,2.8-2.8,4.8-2.8H43c2,0,3.8,1.1,4.8,2.8C48.7,82.5,48.7,84.7,47.7,86.4z M92.9,59.8c-1,1.7-2.8,2.8-4.8,2.8l-73-1.3
			c-2,0-3.8-1.1-4.8-2.8s-1-3.8,0-5.6c1-1.7,2.8-2.8,4.8-2.8l73,1.3c2,0,3.8,1.1,4.8,2.8C93.9,56,93.9,58.1,92.9,59.8z"/>
		<polygon class="st2" points="82.5,0 82.4,0 82.5,0.1 		"/>
	</g>
</g>
</svg>
